<?xml version="1.0" encoding="UTF-8"?>
<!DOCTYPE svg PUBLIC "-//W3C//DTD SVG 1.1//EN" "http://www.w3.org/Graphics/SVG/1.1/DTD/svg11.dtd">
<!-- Creator: CorelDRAW 2020 (64-Bit) -->
<svg xmlns="http://www.w3.org/2000/svg" xml:space="preserve" width="600mm" height="150mm" version="1.1" style="shape-rendering:geometricPrecision; text-rendering:geometricPrecision; image-rendering:optimizeQuality; fill-rule:evenodd; clip-rule:evenodd"
viewBox="0 0 60000 15000"
 xmlns:xlink="http://www.w3.org/1999/xlink"
 xmlns:xodm="http://www.corel.com/coreldraw/odm/2003">
 <defs>
  <style type="text/css">
   <![CDATA[
    .str0 {stroke:black;stroke-width:7.62;stroke-miterlimit:22.9256}
    .fil6 {fill:#33ACB3;fill-rule:nonzero}
    .fil10 {fill:#3E5564;fill-rule:nonzero}
    .fil0 {fill:#5E3C39;fill-rule:nonzero}
    .fil12 {fill:#74343C;fill-rule:nonzero}
    .fil2 {fill:#9B3F48;fill-rule:nonzero}
    .fil1 {fill:#9DD4B1;fill-rule:nonzero}
    .fil11 {fill:#BD3441;fill-rule:nonzero}
    .fil4 {fill:#F16852;fill-rule:nonzero}
    .fil7 {fill:#F26D3F;fill-rule:nonzero}
    .fil3 {fill:#F9BAA8;fill-rule:nonzero}
    .fil5 {fill:#FCBA4D;fill-rule:nonzero}
    .fil9 {fill:#FEFEFE;fill-rule:nonzero}
    .fil8 {fill:#FFD042;fill-rule:nonzero}
    .fil13 {fill:white;fill-rule:nonzero}
   ]]>
  </style>
 </defs>
 <g id="Capa_x0020_1">
  <metadata id="CorelCorpID_0Corel-Layer"/>
  <path class="fil0" d="M12353.33 14996.81l0 -14236.95c0,-418.6 -324.76,-758.07 -725.09,-758.07l-832.77 0c-400.48,0 -725.09,339.47 -725.09,758.07l0 14236.95 2282.95 0z"/>
  <polygon class="fil1" points="10070.38,2602.06 12353.33,2602.06 12353.33,955.25 10070.38,955.25 "/>
  <polygon class="fil1" points="10070.38,6458.52 12353.33,6458.52 12353.33,4898.43 10070.38,4898.43 "/>
  <polygon class="fil1" points="10070.38,14996.81 12353.33,14996.81 12353.33,13783.31 10070.38,13783.31 "/>
  <path class="fil2" d="M10070.38 14996.81l0 -13159.02c0,-327.14 -253.73,-592.5 -566.72,-592.5l-1105.51 0c-312.91,0 -566.66,265.36 -566.66,592.5l0 13159.02 2238.89 0z"/>
  <polygon class="fil3" points="7831.49,4609.97 10070.4,4609.97 10070.4,3585.94 7831.49,3585.94 "/>
  <polygon class="fil3" points="7831.49,11046.91 10070.4,11046.91 10070.4,10095.96 7831.49,10095.96 "/>
  <polygon class="fil3" points="7831.49,14996.81 10070.4,14996.81 10070.4,12729.24 7831.49,12729.24 "/>
  <path class="fil4" d="M2903.47 14996.81l1771.21 -13027.99c44,-324 -171.52,-623.98 -481.34,-669.98l-1787.14 -265.61c-309.82,-46 -596.75,179.24 -640.84,503.17l-1771.23 13028.05 2909.34 432.36z"/>
  <polygon class="fil5" points="3376.04,11520.79 3858.42,7972.22 949.19,7539.96 466.76,11088.44 "/>
  <polygon class="fil5" points="4055.38,6523.92 4144,5872.14 1234.68,5439.81 1146.13,6091.5 "/>
  <polygon class="fil5" points="3100.36,13548.48 3188.98,12896.61 279.7,12464.3 191.09,13116.15 "/>
  <path class="fil5" d="M2341.62 3514.95c48.96,-360.05 367.74,-610.32 711.95,-559.13 344.39,51.11 583.78,384.37 534.82,744.33 -48.9,359.96 -367.72,610.39 -711.96,559.21 -344.36,-51.19 -583.77,-384.45 -534.81,-744.41z"/>
  <path class="fil6" d="M7926.04 14996.81l0 -14209c0,-353.28 -274.01,-639.76 -611.93,-639.76l-1949.1 0c-338,0 -611.93,286.48 -611.93,639.76l0 14209 3172.96 0z"/>
  <polygon class="fil1" points="4753.08,3805.44 7926.02,3805.44 7926.02,2854.56 4753.08,2854.56 "/>
  <polygon class="fil1" points="4753.08,12144.06 7926.02,12144.06 7926.02,11193.21 4753.08,11193.21 "/>
  <polygon class="fil1" points="4753.08,14118.99 7926.02,14118.99 7926.02,13168.11 4753.08,13168.11 "/>
  <path class="fil1" d="M6877.36 9664.54c0,343.41 -266.27,621.79 -594.73,621.79l-12.01 0c-328.46,0 -594.73,-278.38 -594.73,-621.79l0 -3702.43c0,-343.38 266.27,-621.78 594.73,-621.78l12.01 0c328.46,0 594.73,278.4 594.73,621.78l0 3702.43z"/>
  <path class="fil7" d="M17608.1 11054.13l-5790.12 -1117.21 -4842.02 1530.26c-60.42,-4.72 -115.34,38.72 -126.02,102.32 -11.35,67.89 32.11,132.42 97,144.29l15.06 2.73 6146.85 1103.21c611.07,892.36 163.45,1672.72 17.67,1883.9l-6120.95 -1148.66c-5.27,-0.96 -10.43,-0.96 -15.58,-1.1 -58.93,-2.47 -112.11,39.61 -122.77,101.82 -11.71,67.86 31.4,132.61 96.29,144.87l6255.66 1196.24 4281.11 -1837.73c952.61,-1150.06 107.82,-2104.94 107.82,-2104.94z"/>
  <path class="fil0" d="M17608.1 11054.13l-4499.25 1765.6c496.12,724.64 288.59,1498.15 46,1892.68 17.84,149 90.91,289.06 90.91,289.06l4311.3 -1851.12c952.67,-1150.06 51.04,-2096.22 51.04,-2096.22z"/>
  <path class="fil8" d="M16557.44 11466.43c199.38,326.48 598.47,1141.14 261.24,2000.95l-1902.41 816.83c152.91,-437.55 363.87,-1356.53 -205.84,-2092.97l1847.01 -724.81z"/>
  <path class="fil9" d="M13141.35 14726.59c145.78,-211.16 578.57,-1014.5 -32.5,-1906.86l-6146.85 -1103.21 27.99 1837.35c5.15,0.14 10.31,0.14 15.58,1.1l6135.78 1171.62z"/>
  <path class="fil6" d="M17284.62 8686.69l-5790.16 -1117.22 -4841.96 1530.28c-60.44,-4.73 -115.42,38.63 -126.08,102.3 -11.3,67.91 32.16,132.42 96.99,144.28l15.07 2.8 6146.85 1103.09c611.13,892.44 163.49,1672.8 17.72,1883.89l-6120.95 -1148.58c-5.28,-0.98 -10.43,-0.98 -15.64,-1.1 -58.93,-2.47 -112.11,39.61 -122.76,101.82 -11.65,67.84 31.45,132.61 96.29,144.83l6255.7 1196.27 4281.11 -1837.74c952.63,-1150.03 107.82,-2104.92 107.82,-2104.92z"/>
  <path class="fil10" d="M17284.62 8686.69l-4499.29 1765.53c496.16,724.7 288.64,1498.23 46.05,1892.73 17.78,148.96 90.9,289.07 90.9,289.07l4311.3 -1851.18c952.69,-1149.99 51.04,-2096.15 51.04,-2096.15z"/>
  <path class="fil9" d="M16233.92 9098.99c199.38,326.46 598.47,1141.06 261.3,2000.88l-1902.43 816.87c152.92,-437.52 363.85,-1356.5 -205.9,-2092.97l1847.03 -724.78z"/>
  <path class="fil9" d="M12817.83 12359.13c145.77,-211.16 578.63,-1014.47 -32.5,-1906.91l-6146.85 -1103.09 27.98 1837.3c5.21,0.12 10.36,0.12 15.64,1.1l6135.73 1171.6z"/>
  <path class="fil11" d="M17348.25 6193.91l-5790.18 -1117.28 -4841.96 1530.33c-60.49,-4.72 -115.41,38.65 -126.07,102.25 -11.3,67.91 32.16,132.47 96.98,144.29l15.08 2.78 6146.78 1103.16c611.07,892.43 163.55,1672.74 17.79,1883.9l-6120.95 -1148.59c-5.27,-0.96 -10.49,-0.96 -15.65,-1.22 -58.98,-2.47 -112.16,39.68 -122.77,101.96 -11.69,67.77 31.47,132.52 96.29,144.76l6255.72 1196.33 4281.05 -1837.8c952.68,-1150.04 107.89,-2104.87 107.89,-2104.87z"/>
  <path class="fil4" d="M17348.25 6193.91l-4499.37 1765.53c496.24,724.64 288.69,1498.17 46.01,1892.75 17.9,148.95 91.01,289.04 91.01,289.04l4311.31 -1851.17c952.6,-1149.99 51.04,-2096.15 51.04,-2096.15z"/>
  <path class="fil12" d="M16297.51 6606.21c199.41,326.51 598.45,1141.16 261.28,2000.92l-1902.44 816.86c152.93,-437.52 363.91,-1356.53 -205.85,-2093.02l1847.01 -724.76z"/>
  <path class="fil9" d="M12881.43 9866.3c145.78,-211.16 578.52,-1014.43 -32.55,-1906.86l-6146.78 -1103.16 27.97 1837.25c5.16,0.26 10.38,0.26 15.65,1.22l6135.71 1171.55z"/>
  <path class="fil13 str0" d="M26808.61 8877.8c0,-398.94 -56.25,-558.51 -117.18,-558.51l-1710.84 0c-79.68,0 -103.12,398.93 -103.12,598.4l0 2273.93 -2713.9 0 0 -7420.2 1059.31 0c60.94,0 93.75,-159.58 93.75,-398.94l0 -2832.45c0,-398.93 -56.25,-538.56 -126.56,-538.56l-4434.11 0c-70.31,0 -107.8,139.63 -107.8,339.1l0 3071.8c0,199.47 37.49,359.05 93.74,359.05l1035.88 0 0 7420.2 -1017.13 0c-93.74,0 -121.87,199.47 -121.87,359.05l0 3011.96c0,259.31 46.87,398.94 93.75,398.94l7972.96 0c46.87,0 103.12,-139.63 103.12,-498.67l0 -5585.1z"/>
  <path class="fil13 str0" d="M29845.92 11909.71l0 -7380.32c0,-99.73 -23.43,-199.46 -60.93,-199.46l-2713.9 0c-46.87,0 -75,139.62 -75,378.98l0 2493.35c0,139.63 32.81,199.47 84.37,199.47l801.52 0 0 4507.98 -829.64 0c-23.44,0 -56.25,79.79 -56.25,199.47l0 2573.13c0,99.74 18.75,279.26 46.87,279.26l3599.79 0c37.5,0 60.93,-39.89 60.93,-199.47l0 -2632.98c0,-99.73 -23.43,-219.41 -60.93,-219.41l-796.83 0zm-1720.21 -11908.24c-42.18,0 -65.62,99.73 -65.62,179.52l0 2972.07c0,139.63 23.44,159.58 60.93,159.58l1499.91 0c46.88,0 65.63,-139.63 65.63,-259.31l0 -2752.66c0,-219.41 -37.5,-299.2 -89.06,-299.2l-1471.79 0z"/>
  <path class="fil13 str0" d="M30399.02 1.47c-46.87,0 -75,119.68 -75,378.99l0 2493.35c0,119.68 32.81,199.47 84.37,199.47l801.52 0 0 11609.03c0,139.63 23.43,279.26 98.43,279.26l609.34 0c28.12,0 46.87,-39.89 70.3,-139.63l412.48 -2034.57c98.43,359.04 721.83,2214.09 1884.26,2214.09 1120.25,0 2502.98,-957.44 2502.98,-5226.06 0,-3750 -1279.61,-5505.31 -2268.62,-5505.31 -839.01,0 -1293.67,1555.85 -1368.66,1815.15l0 -5884.3c0,-99.74 -23.44,-199.47 -60.94,-199.47l-2690.46 0zm3496.66 7360.37c346.86,0 735.9,837.76 735.9,2353.72 0,1515.96 -304.67,2353.72 -735.9,2353.72 -459.34,0 -735.89,-937.5 -735.89,-2353.72 0,-1535.9 342.17,-2353.72 735.89,-2353.72z"/>
  <path class="fil13 str0" d="M41146.81 1.46c-543.72,0 -1035.87,1533.46 -1228.05,2815.99l0 -2453.53c0,-139.41 -23.44,-278.81 -60.93,-278.81l-2709.22 0c-46.87,0 -79.68,195.16 -79.68,529.74l0 3485.13c0,195.16 32.81,278.81 84.37,278.81l810.89 0 0 6273.23 -839.01 0c-23.44,0 -56.25,111.52 -56.25,278.81l0 3680.3c0,139.4 28.13,334.57 56.25,334.57l3581.03 0c32.81,0 75,-111.52 75,-306.69l0 -3680.3c0,-139.4 -23.44,-306.69 -56.25,-306.69l-806.2 0 0 -3206.32c0,-1923.79 412.48,-2983.27 623.4,-2983.27 149.99,0 276.55,195.17 403.1,724.91 126.56,501.85 356.23,1394.05 679.65,1394.05 328.1,0 679.64,-1115.24 679.64,-3122.68 0,-2146.84 -506.21,-3457.25 -834.32,-3457.25l-323.42 0z"/>
  <path class="fil13 str0" d="M46030.89 15001.46c1757.7,0 2151.43,-4210.03 2268.61,-5687.73 4.69,-83.64 -4.69,-334.57 -46.87,-334.57l-1101.5 0c-14.06,0 -32.81,55.76 -51.56,139.4 -224.99,1366.17 -571.84,1644.98 -984.31,1644.98l-464.04 0c-449.97,0 -942.13,-724.9 -979.63,-2927.51l3571.66 0c75,0 103.12,-83.64 103.12,-223.04l0 -501.86c0,-4572.49 -1462.41,-7109.67 -2479.54,-7109.67l-890.57 0c-243.73,0 -2484.22,362.46 -2484.22,7472.12 0,7081.79 2109.24,7527.88 3023.25,7527.88l515.6 0zm-1298.36 -9507.43c98.43,-892.2 243.73,-1756.51 792.14,-1756.51 421.85,0 604.65,920.08 703.08,1756.51l-1495.22 0z"/>
  <path class="fil13 str0" d="M52700.8 1.46c-543.72,0 -1035.87,1533.46 -1228.05,2815.99l0 -2453.53c0,-139.41 -23.44,-278.81 -60.93,-278.81l-2709.22 0c-46.87,0 -79.68,195.16 -79.68,529.74l0 3485.13c0,195.16 32.81,278.81 84.37,278.81l810.89 0 0 6273.23 -839.01 0c-23.44,0 -56.25,111.52 -56.25,278.81l0 3680.3c0,139.4 28.13,334.57 56.25,334.57l3581.03 0c32.81,0 75,-111.52 75,-306.69l0 -3680.3c0,-139.4 -23.44,-306.69 -56.25,-306.69l-806.2 0 0 -3206.32c0,-1923.79 412.48,-2983.27 623.4,-2983.27 149.99,0 276.55,195.17 403.1,724.91 126.56,501.85 356.23,1394.05 679.65,1394.05 328.1,0 679.64,-1115.24 679.64,-3122.68 0,-2146.84 -506.21,-3457.25 -834.32,-3457.25l-323.42 0z"/>
  <path class="fil13 str0" d="M57406.77 15001.46c529.66,0 2587.35,-613.38 2587.35,-7416.35 0,-5715.62 -1776.46,-7583.65 -2620.16,-7583.65l-534.34 0c-1279.61,0 -2793.58,1951.68 -2793.58,7444.24 0,4014.87 1073.37,7555.76 2662.34,7555.76l698.39 0zm-360.91 -10845.72c346.85,0 829.63,1171 829.63,3373.6 0,2118.96 -398.41,3373.61 -829.63,3373.61 -459.35,0 -810.89,-1394.05 -810.89,-3373.61 0,-2146.84 417.16,-3373.6 810.89,-3373.6z"/>
 </g>
</svg>
