<?xml version="1.0" encoding="UTF-8"?>
<!DOCTYPE svg PUBLIC "-//W3C//DTD SVG 1.1//EN" "http://www.w3.org/Graphics/SVG/1.1/DTD/svg11.dtd">
<!-- Creator: CorelDRAW 2020 (64-Bit) -->
<svg xmlns="http://www.w3.org/2000/svg" xml:space="preserve" width="180mm" height="150mm" version="1.1" style="shape-rendering:geometricPrecision; text-rendering:geometricPrecision; image-rendering:optimizeQuality; fill-rule:evenodd; clip-rule:evenodd"
viewBox="0 0 18000 15000"
 xmlns:xlink="http://www.w3.org/1999/xlink"
 xmlns:xodm="http://www.corel.com/coreldraw/odm/2003">
 <defs>
  <style type="text/css">
   <![CDATA[
    .fil6 {fill:#33ACB3;fill-rule:nonzero}
    .fil10 {fill:#3E5564;fill-rule:nonzero}
    .fil0 {fill:#5E3C39;fill-rule:nonzero}
    .fil12 {fill:#74343C;fill-rule:nonzero}
    .fil2 {fill:#9B3F48;fill-rule:nonzero}
    .fil1 {fill:#9DD4B1;fill-rule:nonzero}
    .fil11 {fill:#BD3441;fill-rule:nonzero}
    .fil4 {fill:#F16852;fill-rule:nonzero}
    .fil7 {fill:#F26D3F;fill-rule:nonzero}
    .fil3 {fill:#F9BAA8;fill-rule:nonzero}
    .fil5 {fill:#FCBA4D;fill-rule:nonzero}
    .fil9 {fill:#FEFEFE;fill-rule:nonzero}
    .fil8 {fill:#FFD042;fill-rule:nonzero}
   ]]>
  </style>
 </defs>
 <g id="Capa_x0020_1">
  <metadata id="CorelCorpID_0Corel-Layer"/>
  <path class="fil0" d="M12359.13 14996.81l0 -14236.95c0,-418.6 -324.76,-758.07 -725.09,-758.07l-832.77 0c-400.48,0 -725.09,339.47 -725.09,758.07l0 14236.95 2282.95 0z"/>
  <polygon class="fil1" points="10076.18,2602.06 12359.13,2602.06 12359.13,955.25 10076.18,955.25 "/>
  <polygon class="fil1" points="10076.18,6458.52 12359.13,6458.52 12359.13,4898.43 10076.18,4898.43 "/>
  <polygon class="fil1" points="10076.18,14996.81 12359.13,14996.81 12359.13,13783.31 10076.18,13783.31 "/>
  <path class="fil2" d="M10076.18 14996.81l0 -13159.02c0,-327.14 -253.73,-592.5 -566.72,-592.5l-1105.51 0c-312.91,0 -566.66,265.36 -566.66,592.5l0 13159.02 2238.89 0z"/>
  <polygon class="fil3" points="7837.29,4609.97 10076.2,4609.97 10076.2,3585.94 7837.29,3585.94 "/>
  <polygon class="fil3" points="7837.29,11046.91 10076.2,11046.91 10076.2,10095.96 7837.29,10095.96 "/>
  <polygon class="fil3" points="7837.29,14996.81 10076.2,14996.81 10076.2,12729.24 7837.29,12729.24 "/>
  <path class="fil4" d="M2909.27 14996.81l1771.21 -13027.99c44,-324 -171.52,-623.98 -481.34,-669.98l-1787.14 -265.61c-309.82,-46 -596.75,179.24 -640.84,503.17l-1771.23 13028.05 2909.34 432.36z"/>
  <polygon class="fil5" points="3381.84,11520.79 3864.22,7972.22 954.99,7539.96 472.56,11088.44 "/>
  <polygon class="fil5" points="4061.18,6523.92 4149.8,5872.14 1240.48,5439.81 1151.93,6091.5 "/>
  <polygon class="fil5" points="3106.16,13548.48 3194.78,12896.61 285.5,12464.3 196.89,13116.15 "/>
  <path class="fil5" d="M2347.42 3514.95c48.96,-360.05 367.74,-610.32 711.95,-559.13 344.39,51.11 583.78,384.37 534.82,744.33 -48.9,359.96 -367.72,610.39 -711.96,559.21 -344.36,-51.19 -583.77,-384.44 -534.81,-744.41z"/>
  <path class="fil6" d="M7931.84 14996.81l0 -14209c0,-353.28 -274.01,-639.76 -611.93,-639.76l-1949.1 0c-338,0 -611.93,286.48 -611.93,639.76l0 14209 3172.96 0z"/>
  <polygon class="fil1" points="4758.88,3805.44 7931.82,3805.44 7931.82,2854.56 4758.88,2854.56 "/>
  <polygon class="fil1" points="4758.88,12144.06 7931.82,12144.06 7931.82,11193.21 4758.88,11193.21 "/>
  <polygon class="fil1" points="4758.88,14118.99 7931.82,14118.99 7931.82,13168.11 4758.88,13168.11 "/>
  <path class="fil1" d="M6883.16 9664.54c0,343.41 -266.27,621.79 -594.73,621.79l-12.01 0c-328.46,0 -594.73,-278.38 -594.73,-621.79l0 -3702.43c0,-343.38 266.27,-621.78 594.73,-621.78l12.01 0c328.46,0 594.73,278.4 594.73,621.78l0 3702.43z"/>
  <path class="fil7" d="M17613.9 11054.13l-5790.12 -1117.21 -4842.02 1530.26c-60.42,-4.72 -115.34,38.72 -126.02,102.32 -11.35,67.89 32.11,132.42 97,144.29l15.06 2.73 6146.85 1103.21c611.07,892.36 163.45,1672.72 17.67,1883.9l-6120.95 -1148.66c-5.27,-0.96 -10.43,-0.96 -15.58,-1.1 -58.93,-2.47 -112.11,39.61 -122.77,101.82 -11.71,67.86 31.4,132.61 96.29,144.87l6255.66 1196.24 4281.11 -1837.73c952.61,-1150.06 107.82,-2104.94 107.82,-2104.94z"/>
  <path class="fil0" d="M17613.9 11054.13l-4499.25 1765.6c496.12,724.64 288.59,1498.15 46,1892.68 17.84,149 90.91,289.06 90.91,289.06l4311.3 -1851.12c952.67,-1150.06 51.04,-2096.22 51.04,-2096.22z"/>
  <path class="fil8" d="M16563.24 11466.43c199.38,326.48 598.47,1141.14 261.24,2000.95l-1902.41 816.83c152.91,-437.55 363.87,-1356.53 -205.84,-2092.97l1847.01 -724.81z"/>
  <path class="fil9" d="M13147.15 14726.59c145.78,-211.16 578.57,-1014.5 -32.5,-1906.86l-6146.85 -1103.21 27.99 1837.35c5.15,0.14 10.31,0.14 15.58,1.1l6135.78 1171.62z"/>
  <path class="fil6" d="M17290.42 8686.69l-5790.16 -1117.22 -4841.96 1530.28c-60.44,-4.73 -115.42,38.63 -126.08,102.3 -11.3,67.91 32.16,132.42 96.99,144.28l15.07 2.8 6146.85 1103.09c611.13,892.44 163.49,1672.8 17.72,1883.89l-6120.95 -1148.58c-5.28,-0.98 -10.43,-0.98 -15.64,-1.1 -58.93,-2.47 -112.11,39.61 -122.76,101.82 -11.65,67.84 31.45,132.61 96.29,144.83l6255.7 1196.27 4281.11 -1837.74c952.63,-1150.03 107.82,-2104.92 107.82,-2104.92z"/>
  <path class="fil10" d="M17290.42 8686.69l-4499.29 1765.53c496.16,724.7 288.64,1498.22 46.05,1892.73 17.78,148.96 90.9,289.07 90.9,289.07l4311.3 -1851.18c952.69,-1149.99 51.04,-2096.15 51.04,-2096.15z"/>
  <path class="fil9" d="M16239.72 9098.99c199.38,326.46 598.47,1141.06 261.3,2000.88l-1902.43 816.87c152.92,-437.52 363.85,-1356.5 -205.9,-2092.97l1847.03 -724.78z"/>
  <path class="fil9" d="M12823.63 12359.13c145.77,-211.16 578.63,-1014.47 -32.5,-1906.91l-6146.85 -1103.09 27.98 1837.3c5.21,0.12 10.36,0.12 15.64,1.1l6135.73 1171.6z"/>
  <path class="fil11" d="M17354.05 6193.91l-5790.18 -1117.28 -4841.96 1530.33c-60.49,-4.72 -115.41,38.65 -126.07,102.25 -11.3,67.91 32.16,132.47 96.98,144.29l15.08 2.78 6146.78 1103.16c611.07,892.43 163.55,1672.74 17.79,1883.9l-6120.95 -1148.59c-5.27,-0.96 -10.49,-0.96 -15.65,-1.22 -58.98,-2.47 -112.16,39.68 -122.77,101.96 -11.69,67.77 31.47,132.52 96.29,144.76l6255.72 1196.33 4281.05 -1837.8c952.68,-1150.04 107.89,-2104.87 107.89,-2104.87z"/>
  <path class="fil4" d="M17354.05 6193.91l-4499.37 1765.53c496.24,724.64 288.69,1498.17 46.01,1892.75 17.9,148.95 91.01,289.04 91.01,289.04l4311.31 -1851.17c952.6,-1149.99 51.04,-2096.15 51.04,-2096.15z"/>
  <path class="fil12" d="M16303.31 6606.21c199.41,326.51 598.45,1141.16 261.28,2000.92l-1902.44 816.86c152.93,-437.52 363.91,-1356.53 -205.85,-2093.02l1847.01 -724.76z"/>
  <path class="fil9" d="M12887.23 9866.3c145.78,-211.16 578.52,-1014.43 -32.55,-1906.86l-6146.78 -1103.16 27.97 1837.25c5.16,0.26 10.38,0.26 15.65,1.22l6135.71 1171.55z"/>
 </g>
</svg>
