<?xml version="1.0" encoding="UTF-8"?>
<!DOCTYPE svg PUBLIC "-//W3C//DTD SVG 1.1//EN" "http://www.w3.org/Graphics/SVG/1.1/DTD/svg11.dtd">
<!-- Creator: CorelDRAW 2020 (64-Bit) -->
<svg xmlns="http://www.w3.org/2000/svg" xml:space="preserve" width="700mm" height="150mm" version="1.1" style="shape-rendering:geometricPrecision; text-rendering:geometricPrecision; image-rendering:optimizeQuality; fill-rule:evenodd; clip-rule:evenodd"
viewBox="0 0 70000 15000"
 xmlns:xlink="http://www.w3.org/1999/xlink"
 xmlns:xodm="http://www.corel.com/coreldraw/odm/2003">
 <defs>
  <style type="text/css">
   <![CDATA[
    .str0 {stroke:black;stroke-width:7.62;stroke-miterlimit:22.9256}
    .fil6 {fill:#33ACB3;fill-rule:nonzero}
    .fil10 {fill:#3E5564;fill-rule:nonzero}
    .fil0 {fill:#5E3C39;fill-rule:nonzero}
    .fil12 {fill:#74343C;fill-rule:nonzero}
    .fil2 {fill:#9B3F48;fill-rule:nonzero}
    .fil1 {fill:#9DD4B1;fill-rule:nonzero}
    .fil11 {fill:#BD3441;fill-rule:nonzero}
    .fil4 {fill:#F16852;fill-rule:nonzero}
    .fil7 {fill:#F26D3F;fill-rule:nonzero}
    .fil3 {fill:#F9BAA8;fill-rule:nonzero}
    .fil5 {fill:#FCBA4D;fill-rule:nonzero}
    .fil9 {fill:#FEFEFE;fill-rule:nonzero}
    .fil8 {fill:#FFD042;fill-rule:nonzero}
    .fil13 {fill:white;fill-rule:nonzero}
   ]]>
  </style>
 </defs>
 <g id="Capa_x0020_1">
  <metadata id="CorelCorpID_0Corel-Layer"/>
  <path class="fil0" d="M12358 14996.81l0 -14236.95c0,-418.6 -324.76,-758.07 -725.09,-758.07l-832.77 0c-400.48,0 -725.09,339.47 -725.09,758.07l0 14236.95 2282.95 0z"/>
  <polygon class="fil1" points="10075.05,2602.06 12358,2602.06 12358,955.25 10075.05,955.25 "/>
  <polygon class="fil1" points="10075.05,6458.52 12358,6458.52 12358,4898.43 10075.05,4898.43 "/>
  <polygon class="fil1" points="10075.05,14996.81 12358,14996.81 12358,13783.31 10075.05,13783.31 "/>
  <path class="fil2" d="M10075.05 14996.81l0 -13159.02c0,-327.14 -253.73,-592.5 -566.72,-592.5l-1105.51 0c-312.91,0 -566.66,265.36 -566.66,592.5l0 13159.02 2238.89 0z"/>
  <polygon class="fil3" points="7836.16,4609.97 10075.07,4609.97 10075.07,3585.94 7836.16,3585.94 "/>
  <polygon class="fil3" points="7836.16,11046.91 10075.07,11046.91 10075.07,10095.96 7836.16,10095.96 "/>
  <polygon class="fil3" points="7836.16,14996.81 10075.07,14996.81 10075.07,12729.24 7836.16,12729.24 "/>
  <path class="fil4" d="M2908.14 14996.81l1771.21 -13027.99c44,-324 -171.52,-623.98 -481.34,-669.98l-1787.14 -265.61c-309.82,-46 -596.75,179.24 -640.84,503.17l-1771.23 13028.05 2909.34 432.36z"/>
  <polygon class="fil5" points="3380.71,11520.79 3863.09,7972.22 953.86,7539.96 471.43,11088.44 "/>
  <polygon class="fil5" points="4060.05,6523.92 4148.67,5872.14 1239.35,5439.81 1150.8,6091.5 "/>
  <polygon class="fil5" points="3105.03,13548.48 3193.65,12896.61 284.37,12464.3 195.76,13116.15 "/>
  <path class="fil5" d="M2346.29 3514.95c48.96,-360.05 367.74,-610.32 711.95,-559.13 344.39,51.11 583.78,384.37 534.82,744.33 -48.9,359.96 -367.72,610.39 -711.96,559.21 -344.36,-51.19 -583.77,-384.45 -534.81,-744.41z"/>
  <path class="fil6" d="M7930.71 14996.81l0 -14209c0,-353.28 -274.01,-639.76 -611.93,-639.76l-1949.1 0c-338,0 -611.93,286.48 -611.93,639.76l0 14209 3172.96 0z"/>
  <polygon class="fil1" points="4757.75,3805.44 7930.69,3805.44 7930.69,2854.56 4757.75,2854.56 "/>
  <polygon class="fil1" points="4757.75,12144.06 7930.69,12144.06 7930.69,11193.21 4757.75,11193.21 "/>
  <polygon class="fil1" points="4757.75,14118.99 7930.69,14118.99 7930.69,13168.11 4757.75,13168.11 "/>
  <path class="fil1" d="M6882.03 9664.54c0,343.41 -266.27,621.79 -594.73,621.79l-12.01 0c-328.46,0 -594.73,-278.38 -594.73,-621.79l0 -3702.43c0,-343.38 266.27,-621.78 594.73,-621.78l12.01 0c328.46,0 594.73,278.4 594.73,621.78l0 3702.43z"/>
  <path class="fil7" d="M17612.77 11054.13l-5790.12 -1117.21 -4842.02 1530.26c-60.42,-4.72 -115.34,38.72 -126.02,102.32 -11.35,67.89 32.11,132.42 97,144.29l15.06 2.73 6146.85 1103.21c611.07,892.36 163.45,1672.72 17.67,1883.9l-6120.95 -1148.66c-5.27,-0.96 -10.43,-0.96 -15.58,-1.1 -58.93,-2.47 -112.11,39.61 -122.77,101.82 -11.71,67.86 31.4,132.61 96.29,144.87l6255.66 1196.24 4281.11 -1837.73c952.61,-1150.06 107.82,-2104.94 107.82,-2104.94z"/>
  <path class="fil0" d="M17612.77 11054.13l-4499.25 1765.6c496.12,724.64 288.59,1498.15 46,1892.68 17.84,149 90.91,289.06 90.91,289.06l4311.3 -1851.12c952.67,-1150.06 51.04,-2096.22 51.04,-2096.22z"/>
  <path class="fil8" d="M16562.11 11466.43c199.38,326.48 598.47,1141.14 261.24,2000.95l-1902.41 816.83c152.91,-437.55 363.87,-1356.53 -205.84,-2092.97l1847.01 -724.81z"/>
  <path class="fil9" d="M13146.02 14726.59c145.78,-211.16 578.57,-1014.5 -32.5,-1906.86l-6146.85 -1103.21 27.99 1837.35c5.15,0.14 10.31,0.14 15.58,1.1l6135.78 1171.62z"/>
  <path class="fil6" d="M17289.29 8686.69l-5790.16 -1117.22 -4841.96 1530.28c-60.44,-4.73 -115.42,38.63 -126.08,102.3 -11.3,67.91 32.16,132.42 96.99,144.28l15.07 2.8 6146.85 1103.09c611.13,892.44 163.49,1672.8 17.72,1883.89l-6120.95 -1148.58c-5.28,-0.98 -10.43,-0.98 -15.64,-1.1 -58.93,-2.47 -112.11,39.61 -122.76,101.82 -11.65,67.84 31.45,132.61 96.29,144.83l6255.7 1196.27 4281.11 -1837.74c952.63,-1150.03 107.82,-2104.92 107.82,-2104.92z"/>
  <path class="fil10" d="M17289.29 8686.69l-4499.29 1765.53c496.16,724.7 288.64,1498.23 46.05,1892.73 17.78,148.96 90.9,289.07 90.9,289.07l4311.3 -1851.18c952.69,-1149.99 51.04,-2096.15 51.04,-2096.15z"/>
  <path class="fil9" d="M16238.59 9098.99c199.38,326.46 598.47,1141.06 261.3,2000.88l-1902.43 816.87c152.92,-437.52 363.85,-1356.5 -205.9,-2092.97l1847.03 -724.78z"/>
  <path class="fil9" d="M12822.5 12359.13c145.77,-211.16 578.63,-1014.47 -32.5,-1906.91l-6146.85 -1103.09 27.98 1837.3c5.21,0.12 10.36,0.12 15.64,1.1l6135.73 1171.6z"/>
  <path class="fil11" d="M17352.92 6193.91l-5790.18 -1117.28 -4841.96 1530.33c-60.49,-4.72 -115.41,38.65 -126.07,102.25 -11.3,67.91 32.16,132.47 96.98,144.29l15.08 2.78 6146.78 1103.16c611.07,892.43 163.55,1672.74 17.79,1883.9l-6120.95 -1148.59c-5.27,-0.96 -10.49,-0.96 -15.65,-1.22 -58.98,-2.47 -112.16,39.68 -122.77,101.96 -11.69,67.77 31.47,132.52 96.29,144.76l6255.72 1196.33 4281.05 -1837.8c952.68,-1150.04 107.89,-2104.87 107.89,-2104.87z"/>
  <path class="fil4" d="M17352.92 6193.91l-4499.37 1765.53c496.24,724.64 288.69,1498.17 46.01,1892.75 17.9,148.95 91.01,289.04 91.01,289.04l4311.31 -1851.17c952.6,-1149.99 51.04,-2096.15 51.04,-2096.15z"/>
  <path class="fil12" d="M16302.18 6606.21c199.41,326.51 598.45,1141.16 261.28,2000.92l-1902.44 816.86c152.93,-437.52 363.91,-1356.53 -205.85,-2093.02l1847.01 -724.76z"/>
  <path class="fil9" d="M12886.1 9866.3c145.78,-211.16 578.52,-1014.43 -32.55,-1906.86l-6146.78 -1103.16 27.97 1837.25c5.16,0.26 10.38,0.26 15.65,1.22l6135.71 1171.55z"/>
  <path class="fil13 str0" d="M28330.85 8877.8c0,-398.94 -59.82,-558.51 -124.61,-558.51l-1819.22 0c-84.73,0 -109.65,398.93 -109.65,598.4l0 2273.93 -2885.83 0 0 -7420.2 1126.42 0c64.8,0 99.69,-159.58 99.69,-398.94l0 -2832.45c0,-398.93 -59.82,-538.56 -134.58,-538.56l-4715.02 0c-74.76,0 -114.63,139.63 -114.63,339.1l0 3071.8c0,199.47 39.87,359.05 99.68,359.05l1101.51 0 0 7420.2 -1081.57 0c-99.68,0 -129.59,199.47 -129.59,359.05l0 3011.96c0,259.31 49.84,398.94 99.69,398.94l8478.05 0c49.84,0 109.66,-139.63 109.66,-498.67l0 -5585.1z"/>
  <path class="fil13 str0" d="M32623.92 11909.71l0 -7380.32c0,-99.73 -24.91,-199.46 -64.79,-199.46l-2885.82 0c-49.84,0 -79.75,139.62 -79.75,378.98l0 2493.35c0,139.63 34.88,199.47 89.71,199.47l852.3 0 0 4507.98 -882.2 0c-24.93,0 -59.81,79.79 -59.81,199.47l0 2573.13c0,99.74 19.93,279.26 49.83,279.26l3827.84 0c39.88,0 64.79,-39.89 64.79,-199.47l0 -2632.98c0,-99.73 -24.91,-219.41 -64.79,-219.41l-847.31 0zm-1829.18 -11908.24c-44.85,0 -69.78,99.73 -69.78,179.52l0 2972.07c0,139.63 24.93,159.58 64.79,159.58l1594.93 0c49.85,0 69.79,-139.63 69.79,-259.31l0 -2752.66c0,-219.41 -39.88,-299.2 -94.7,-299.2l-1565.03 0z"/>
  <path class="fil13 str0" d="M34275.42 1.47c-49.84,0 -79.76,119.68 -79.76,378.99l0 2493.35c0,119.68 34.89,199.47 89.72,199.47l852.3 0 0 11609.03c0,139.63 24.91,279.26 104.66,279.26l647.94 0c29.91,0 49.84,-39.89 74.76,-139.63l438.61 -2034.57c104.66,359.04 767.56,2214.09 2003.63,2214.09 1191.22,0 2661.54,-957.44 2661.54,-5226.06 0,-3750 -1360.67,-5505.31 -2412.33,-5505.31 -892.17,0 -1375.63,1555.85 -1455.37,1815.15l0 -5884.3c0,-99.74 -24.93,-199.47 -64.8,-199.47l-2860.9 0zm3718.17 7360.37c368.84,0 782.52,837.76 782.52,2353.72 0,1515.96 -323.97,2353.72 -782.52,2353.72 -488.44,0 -782.51,-937.5 -782.51,-2353.72 0,-1535.9 363.85,-2353.72 782.51,-2353.72z"/>
  <path class="fil13 str0" d="M46767.44 1.46c-578.17,0 -1101.49,1533.46 -1305.85,2815.99l0 -2453.53c0,-139.41 -24.92,-278.81 -64.79,-278.81l-2880.85 0c-49.84,0 -84.73,195.16 -84.73,529.74l0 3485.13c0,195.16 34.89,278.81 89.72,278.81l862.26 0 0 6273.23 -892.16 0c-24.93,0 -59.82,111.52 -59.82,278.81l0 3680.3c0,139.4 29.91,334.57 59.82,334.57l3807.89 0c34.89,0 79.75,-111.52 79.75,-306.69l0 -3680.3c0,-139.4 -24.93,-306.69 -59.81,-306.69l-857.28 0 0 -3206.32c0,-1923.79 438.61,-2983.27 662.89,-2983.27 159.5,0 294.07,195.17 428.64,724.91 134.58,501.85 378.8,1394.05 722.71,1394.05 348.88,0 722.69,-1115.24 722.69,-3122.68 0,-2146.84 -538.27,-3457.25 -887.17,-3457.25l-343.91 0z"/>
  <path class="fil13 str0" d="M53024.28 15001.46c1869.05,0 2287.73,-4210.03 2412.33,-5687.73 4.99,-83.64 -4.99,-334.57 -49.84,-334.57l-1171.28 0c-14.95,0 -34.89,55.76 -54.83,139.4 -239.24,1366.17 -608.06,1644.98 -1046.66,1644.98l-493.44 0c-478.48,0 -1001.81,-724.9 -1041.69,-2927.51l3797.93 0c79.75,0 109.65,-83.64 109.65,-223.04l0 -501.86c0,-4572.49 -1555.05,-7109.67 -2636.62,-7109.67l-946.99 0c-259.17,0 -2641.6,362.46 -2641.6,7472.12 0,7081.79 2242.87,7527.88 3214.78,7527.88l548.26 0zm-1380.61 -9507.43c104.67,-892.2 259.17,-1756.51 842.32,-1756.51 448.58,0 642.96,920.08 747.62,1756.51l-1589.94 0z"/>
  <path class="fil13 str0" d="M61180.09 1.46c-578.17,0 -1101.49,1533.46 -1305.85,2815.99l0 -2453.53c0,-139.41 -24.92,-278.81 -64.79,-278.81l-2880.85 0c-49.84,0 -84.73,195.16 -84.73,529.74l0 3485.13c0,195.16 34.89,278.81 89.72,278.81l862.26 0 0 6273.23 -892.17 0c-24.92,0 -59.81,111.52 -59.81,278.81l0 3680.3c0,139.4 29.91,334.57 59.81,334.57l3807.9 0c34.89,0 79.75,-111.52 79.75,-306.69l0 -3680.3c0,-139.4 -24.93,-306.69 -59.82,-306.69l-857.27 0 0 -3206.32c0,-1923.79 438.61,-2983.27 662.89,-2983.27 159.5,0 294.07,195.17 428.64,724.91 134.58,501.85 378.8,1394.05 722.71,1394.05 348.88,0 722.69,-1115.24 722.69,-3122.68 0,-2146.84 -538.28,-3457.25 -887.17,-3457.25l-343.91 0z"/>
  <path class="fil13 str0" d="M67247.54 15001.46c563.21,0 2751.26,-613.38 2751.26,-7416.35 0,-5715.62 -1889,-7583.65 -2786.15,-7583.65l-568.19 0c-1360.68,0 -2970.56,1951.68 -2970.56,7444.24 0,4014.87 1141.37,7555.76 2831,7555.76l742.64 0zm-383.78 -10845.72c368.83,0 882.19,1171 882.19,3373.6 0,2118.96 -423.65,3373.61 -882.19,3373.61 -488.45,0 -862.26,-1394.05 -862.26,-3373.61 0,-2146.84 443.59,-3373.6 862.26,-3373.6z"/>
 </g>
</svg>
